<mxfile host="app.diagrams.net" modified="2022-01-14T09:03:51.553Z" agent="5.0 (Macintosh; Intel Mac OS X 10_15_7) AppleWebKit/605.1.15 (KHTML, like Gecko) Version/15.2 Safari/605.1.15" etag="FOBI0SDXOF2bwrXExrLY" version="16.2.4" type="github">
  <diagram id="rfSWHlRA1yjYHvfrcOm9" name="Page-1">
    <mxGraphModel dx="652" dy="464" grid="1" gridSize="10" guides="1" tooltips="1" connect="1" arrows="1" fold="1" page="1" pageScale="1" pageWidth="827" pageHeight="1169" math="0" shadow="0">
      <root>
        <mxCell id="0" />
        <mxCell id="1" parent="0" />
        <mxCell id="764dK100W6ZVJjYmW9kR-14" value="" style="edgeStyle=orthogonalEdgeStyle;rounded=0;orthogonalLoop=1;jettySize=auto;html=1;fontSize=12;" parent="1" source="764dK100W6ZVJjYmW9kR-1" target="764dK100W6ZVJjYmW9kR-5" edge="1">
          <mxGeometry relative="1" as="geometry" />
        </mxCell>
        <mxCell id="764dK100W6ZVJjYmW9kR-1" value="OAuth2" style="ellipse;whiteSpace=wrap;html=1;" parent="1" vertex="1">
          <mxGeometry x="70" y="30" width="80" height="50" as="geometry" />
        </mxCell>
        <mxCell id="764dK100W6ZVJjYmW9kR-2" value=".env 파일 열기" style="rounded=1;whiteSpace=wrap;html=1;" parent="1" vertex="1">
          <mxGeometry x="70" y="110" width="80" height="40" as="geometry" />
        </mxCell>
        <mxCell id="764dK100W6ZVJjYmW9kR-3" value="" style="rounded=1;whiteSpace=wrap;html=1;" parent="1" vertex="1">
          <mxGeometry x="620" y="20" width="80" height="40" as="geometry" />
        </mxCell>
        <mxCell id="764dK100W6ZVJjYmW9kR-4" value="" style="ellipse;whiteSpace=wrap;html=1;" parent="1" vertex="1">
          <mxGeometry x="740" y="10" width="80" height="50" as="geometry" />
        </mxCell>
        <mxCell id="764dK100W6ZVJjYmW9kR-7" value="" style="edgeStyle=orthogonalEdgeStyle;rounded=0;orthogonalLoop=1;jettySize=auto;html=1;fontSize=12;dashed=1;dashPattern=1 2;" parent="1" source="764dK100W6ZVJjYmW9kR-5" target="764dK100W6ZVJjYmW9kR-6" edge="1">
          <mxGeometry relative="1" as="geometry" />
        </mxCell>
        <mxCell id="764dK100W6ZVJjYmW9kR-18" style="edgeStyle=orthogonalEdgeStyle;rounded=0;orthogonalLoop=1;jettySize=auto;html=1;exitX=0.5;exitY=1;exitDx=0;exitDy=0;entryX=0.5;entryY=0;entryDx=0;entryDy=0;fontSize=12;" parent="1" source="764dK100W6ZVJjYmW9kR-5" target="764dK100W6ZVJjYmW9kR-12" edge="1">
          <mxGeometry relative="1" as="geometry" />
        </mxCell>
        <mxCell id="764dK100W6ZVJjYmW9kR-5" value="client 설정" style="rounded=1;whiteSpace=wrap;html=1;" parent="1" vertex="1">
          <mxGeometry x="70" y="180" width="80" height="40" as="geometry" />
        </mxCell>
        <mxCell id="764dK100W6ZVJjYmW9kR-6" value="&lt;h1 style=&quot;font-size: 14px&quot;&gt;&lt;font style=&quot;font-size: 14px&quot;&gt;client 설정&lt;/font&gt;&lt;/h1&gt;&lt;div&gt;&lt;font style=&quot;font-size: 12px&quot;&gt;client_id,&lt;/font&gt;&lt;/div&gt;&lt;div&gt;&lt;font style=&quot;font-size: 12px&quot;&gt;client_secret,&lt;/font&gt;&lt;/div&gt;&lt;div&gt;&lt;font style=&quot;font-size: 12px&quot;&gt;auth_url,&lt;/font&gt;&lt;/div&gt;&lt;div&gt;&lt;font style=&quot;font-size: 12px&quot;&gt;token_url,&lt;/font&gt;&lt;/div&gt;&lt;div&gt;&lt;font style=&quot;font-size: 12px&quot;&gt;redirect_uri&lt;/font&gt;&lt;/div&gt;" style="text;html=1;strokeColor=none;fillColor=none;spacing=5;spacingTop=-20;whiteSpace=wrap;overflow=hidden;rounded=0;" parent="1" vertex="1">
          <mxGeometry x="180" y="150" width="90" height="100" as="geometry" />
        </mxCell>
        <mxCell id="764dK100W6ZVJjYmW9kR-21" value="" style="edgeStyle=orthogonalEdgeStyle;rounded=0;orthogonalLoop=1;jettySize=auto;html=1;fontSize=11;" parent="1" source="764dK100W6ZVJjYmW9kR-9" target="764dK100W6ZVJjYmW9kR-20" edge="1">
          <mxGeometry relative="1" as="geometry" />
        </mxCell>
        <mxCell id="764dK100W6ZVJjYmW9kR-9" value="auth_url 연결" style="rounded=1;whiteSpace=wrap;html=1;" parent="1" vertex="1">
          <mxGeometry x="210" y="320" width="80" height="40" as="geometry" />
        </mxCell>
        <mxCell id="764dK100W6ZVJjYmW9kR-31" value="" style="edgeStyle=orthogonalEdgeStyle;rounded=0;orthogonalLoop=1;jettySize=auto;html=1;fontSize=13;fontColor=#FF00FF;" parent="1" source="764dK100W6ZVJjYmW9kR-11" target="764dK100W6ZVJjYmW9kR-30" edge="1">
          <mxGeometry relative="1" as="geometry" />
        </mxCell>
        <mxCell id="764dK100W6ZVJjYmW9kR-11" value="access_token 획득" style="rounded=1;whiteSpace=wrap;html=1;" parent="1" vertex="1">
          <mxGeometry x="70" y="460" width="80" height="40" as="geometry" />
        </mxCell>
        <mxCell id="764dK100W6ZVJjYmW9kR-17" value="user" style="edgeStyle=orthogonalEdgeStyle;rounded=0;orthogonalLoop=1;jettySize=auto;html=1;exitX=1;exitY=0.5;exitDx=0;exitDy=0;entryX=0.5;entryY=0;entryDx=0;entryDy=0;fontSize=12;" parent="1" source="764dK100W6ZVJjYmW9kR-12" target="764dK100W6ZVJjYmW9kR-9" edge="1">
          <mxGeometry relative="1" as="geometry" />
        </mxCell>
        <mxCell id="764dK100W6ZVJjYmW9kR-19" value="&lt;font size=&quot;1&quot;&gt;server&lt;/font&gt;" style="edgeStyle=orthogonalEdgeStyle;rounded=0;orthogonalLoop=1;jettySize=auto;html=1;exitX=0.5;exitY=1;exitDx=0;exitDy=0;entryX=0.5;entryY=0;entryDx=0;entryDy=0;fontSize=12;" parent="1" source="764dK100W6ZVJjYmW9kR-12" target="764dK100W6ZVJjYmW9kR-13" edge="1">
          <mxGeometry relative="1" as="geometry" />
        </mxCell>
        <mxCell id="764dK100W6ZVJjYmW9kR-12" value="auth_url &amp;nbsp;생성" style="rounded=1;whiteSpace=wrap;html=1;" parent="1" vertex="1">
          <mxGeometry x="70" y="250" width="80" height="40" as="geometry" />
        </mxCell>
        <mxCell id="764dK100W6ZVJjYmW9kR-25" value="&lt;b&gt;&lt;font color=&quot;#ff00ff&quot; style=&quot;font-size: 13px&quot;&gt;2&lt;/font&gt;&lt;/b&gt;" style="edgeStyle=orthogonalEdgeStyle;rounded=0;orthogonalLoop=1;jettySize=auto;html=1;fontSize=11;" parent="1" source="764dK100W6ZVJjYmW9kR-13" target="764dK100W6ZVJjYmW9kR-16" edge="1">
          <mxGeometry relative="1" as="geometry" />
        </mxCell>
        <mxCell id="764dK100W6ZVJjYmW9kR-13" value="local server 생성 후 listen" style="rounded=1;whiteSpace=wrap;html=1;" parent="1" vertex="1">
          <mxGeometry x="70" y="320" width="80" height="40" as="geometry" />
        </mxCell>
        <mxCell id="764dK100W6ZVJjYmW9kR-23" value="" style="edgeStyle=orthogonalEdgeStyle;rounded=0;orthogonalLoop=1;jettySize=auto;html=1;fontSize=11;" parent="1" source="764dK100W6ZVJjYmW9kR-16" target="764dK100W6ZVJjYmW9kR-11" edge="1">
          <mxGeometry relative="1" as="geometry" />
        </mxCell>
        <mxCell id="764dK100W6ZVJjYmW9kR-16" value="code 값 획득" style="rounded=1;whiteSpace=wrap;html=1;" parent="1" vertex="1">
          <mxGeometry x="70" y="390" width="80" height="40" as="geometry" />
        </mxCell>
        <mxCell id="764dK100W6ZVJjYmW9kR-29" value="&lt;b&gt;&lt;font color=&quot;#ff00ff&quot; style=&quot;font-size: 13px&quot;&gt;1&lt;/font&gt;&lt;/b&gt;" style="edgeStyle=orthogonalEdgeStyle;rounded=0;orthogonalLoop=1;jettySize=auto;html=1;entryX=1;entryY=0.5;entryDx=0;entryDy=0;fontSize=11;" parent="1" source="764dK100W6ZVJjYmW9kR-20" target="764dK100W6ZVJjYmW9kR-13" edge="1">
          <mxGeometry relative="1" as="geometry" />
        </mxCell>
        <mxCell id="764dK100W6ZVJjYmW9kR-20" value="authorize" style="ellipse;whiteSpace=wrap;html=1;" parent="1" vertex="1">
          <mxGeometry x="210" y="385" width="80" height="50" as="geometry" />
        </mxCell>
        <mxCell id="764dK100W6ZVJjYmW9kR-30" value="return access_token" style="ellipse;whiteSpace=wrap;html=1;" parent="1" vertex="1">
          <mxGeometry x="70" y="534.5" width="80" height="50" as="geometry" />
        </mxCell>
        <mxCell id="FaxqJj2XbyqUI5SI648U-8" style="edgeStyle=orthogonalEdgeStyle;rounded=0;orthogonalLoop=1;jettySize=auto;html=1;exitX=0.5;exitY=1;exitDx=0;exitDy=0;entryX=0.5;entryY=0;entryDx=0;entryDy=0;" edge="1" parent="1" source="FaxqJj2XbyqUI5SI648U-1" target="FaxqJj2XbyqUI5SI648U-2">
          <mxGeometry relative="1" as="geometry" />
        </mxCell>
        <mxCell id="FaxqJj2XbyqUI5SI648U-1" value="update .env" style="ellipse;whiteSpace=wrap;html=1;" vertex="1" parent="1">
          <mxGeometry x="430" y="80" width="80" height="50" as="geometry" />
        </mxCell>
        <mxCell id="FaxqJj2XbyqUI5SI648U-9" style="edgeStyle=orthogonalEdgeStyle;rounded=0;orthogonalLoop=1;jettySize=auto;html=1;exitX=0.5;exitY=1;exitDx=0;exitDy=0;entryX=0.5;entryY=0;entryDx=0;entryDy=0;" edge="1" parent="1" source="FaxqJj2XbyqUI5SI648U-2" target="FaxqJj2XbyqUI5SI648U-3">
          <mxGeometry relative="1" as="geometry" />
        </mxCell>
        <mxCell id="FaxqJj2XbyqUI5SI648U-2" value="file open" style="rounded=1;whiteSpace=wrap;html=1;" vertex="1" parent="1">
          <mxGeometry x="430" y="160" width="80" height="40" as="geometry" />
        </mxCell>
        <mxCell id="FaxqJj2XbyqUI5SI648U-10" style="edgeStyle=orthogonalEdgeStyle;rounded=0;orthogonalLoop=1;jettySize=auto;html=1;exitX=0.5;exitY=1;exitDx=0;exitDy=0;entryX=0.5;entryY=0;entryDx=0;entryDy=0;" edge="1" parent="1" source="FaxqJj2XbyqUI5SI648U-3" target="FaxqJj2XbyqUI5SI648U-4">
          <mxGeometry relative="1" as="geometry" />
        </mxCell>
        <mxCell id="FaxqJj2XbyqUI5SI648U-3" value="read a line" style="rounded=1;whiteSpace=wrap;html=1;" vertex="1" parent="1">
          <mxGeometry x="430" y="230" width="80" height="40" as="geometry" />
        </mxCell>
        <mxCell id="FaxqJj2XbyqUI5SI648U-12" value="YES" style="edgeStyle=orthogonalEdgeStyle;rounded=0;orthogonalLoop=1;jettySize=auto;html=1;exitX=1;exitY=0.5;exitDx=0;exitDy=0;" edge="1" parent="1" source="FaxqJj2XbyqUI5SI648U-4" target="FaxqJj2XbyqUI5SI648U-11">
          <mxGeometry relative="1" as="geometry" />
        </mxCell>
        <mxCell id="FaxqJj2XbyqUI5SI648U-14" value="NO" style="edgeStyle=orthogonalEdgeStyle;rounded=0;orthogonalLoop=1;jettySize=auto;html=1;exitX=0.5;exitY=1;exitDx=0;exitDy=0;" edge="1" parent="1" source="FaxqJj2XbyqUI5SI648U-4" target="FaxqJj2XbyqUI5SI648U-5">
          <mxGeometry relative="1" as="geometry" />
        </mxCell>
        <mxCell id="FaxqJj2XbyqUI5SI648U-4" value="contains access_token" style="rhombus;whiteSpace=wrap;html=1;" vertex="1" parent="1">
          <mxGeometry x="432.5" y="300" width="75" height="80" as="geometry" />
        </mxCell>
        <mxCell id="FaxqJj2XbyqUI5SI648U-5" value="write to .temp" style="rounded=1;whiteSpace=wrap;html=1;" vertex="1" parent="1">
          <mxGeometry x="430" y="410" width="80" height="40" as="geometry" />
        </mxCell>
        <mxCell id="FaxqJj2XbyqUI5SI648U-15" style="edgeStyle=orthogonalEdgeStyle;rounded=0;orthogonalLoop=1;jettySize=auto;html=1;exitX=0.5;exitY=1;exitDx=0;exitDy=0;entryX=1;entryY=0.5;entryDx=0;entryDy=0;" edge="1" parent="1" source="FaxqJj2XbyqUI5SI648U-11" target="FaxqJj2XbyqUI5SI648U-5">
          <mxGeometry relative="1" as="geometry" />
        </mxCell>
        <mxCell id="FaxqJj2XbyqUI5SI648U-11" value="new access_token" style="rounded=1;whiteSpace=wrap;html=1;" vertex="1" parent="1">
          <mxGeometry x="560" y="320" width="80" height="40" as="geometry" />
        </mxCell>
      </root>
    </mxGraphModel>
  </diagram>
</mxfile>
